<svg width="132" height="40" viewBox="0 0 132 40" fill="none" xmlns="http://www.w3.org/2000/svg">
<g clip-path="url(#clip0_2482_83112)">
<path d="M24.354 25.4292L26.5385 26.0231C27.1264 26.1829 27.4203 26.2629 27.5442 26.4265C27.6521 26.5691 27.6894 26.752 27.6461 26.9265C27.5964 27.1269 27.358 27.3194 26.8811 27.7044L21.7352 31.8588C20.985 32.4644 20.6099 32.7672 20.3621 32.7516C20.1479 32.7382 19.958 32.6174 19.86 32.4322C19.7466 32.2179 19.8835 31.7636 20.1573 30.8549L20.8621 28.5156C20.9609 28.1878 21.0103 28.0239 20.9831 27.8811C20.9591 27.7554 20.895 27.6411 20.7998 27.5545C20.6916 27.456 20.5248 27.4107 20.1912 27.32L18.0066 26.7261C17.4188 26.5663 17.1248 26.4864 17.0009 26.3227C16.893 26.1802 16.8558 25.9972 16.8991 25.8227C16.9488 25.6223 17.1872 25.4298 17.6641 25.0448L22.81 20.8905C23.5601 20.2849 23.9352 19.9821 24.1831 19.9976C24.3972 20.011 24.5871 20.1318 24.6852 20.317C24.7986 20.5313 24.6617 20.9857 24.3879 21.8943L23.6831 24.2336C23.5843 24.5614 23.5349 24.7253 23.5621 24.8682C23.586 24.9938 23.6502 25.1082 23.7454 25.1948C23.8536 25.2932 24.0204 25.3385 24.354 25.4292Z" fill="#9C6FFC"/>
<path d="M8.61027 8.22065L12.2026 8.85407C13.3203 9.05115 13.8791 9.1497 14.2677 9.44249C14.6095 9.70004 14.8609 10.0592 14.9861 10.4684C15.1283 10.9337 15.0298 11.4926 14.8327 12.6103L14.1993 16.2026C14.0022 17.3203 13.9036 17.8791 13.6108 18.2677C13.3533 18.6095 12.9942 18.8609 12.5849 18.9861C12.1196 19.1283 11.5608 19.0298 10.4431 18.8327L6.85077 18.1993C5.73306 18.0022 5.17421 17.9036 4.78565 17.6108C4.44387 17.3533 4.1924 16.9942 4.06728 16.5849C3.92503 16.1196 4.02357 15.5608 4.22065 14.4431L4.85407 10.8508C5.05115 9.73306 5.1497 9.17421 5.44249 8.78565C5.70004 8.44387 6.05918 8.1924 6.46844 8.06728C6.9337 7.92503 7.49256 8.02357 8.61027 8.22065Z" fill="#FBEE40"/>
<path d="M8.61027 8.22065L12.2026 8.85407C13.3203 9.05115 13.8791 9.1497 14.2677 9.44249C14.6095 9.70004 14.8609 10.0592 14.9861 10.4684C15.1283 10.9337 15.0298 11.4926 14.8327 12.6103L14.1993 16.2026C14.0022 17.3203 13.9036 17.8791 13.6108 18.2677C13.3533 18.6095 12.9942 18.8609 12.5849 18.9861C12.1196 19.1283 11.5608 19.0298 10.4431 18.8327L6.85077 18.1993C5.73306 18.0022 5.17421 17.9036 4.78565 17.6108C4.44387 17.3533 4.1924 16.9942 4.06728 16.5849C3.92503 16.1196 4.02357 15.5608 4.22065 14.4431L4.85407 10.8508C5.05115 9.73306 5.1497 9.17421 5.44249 8.78565C5.70004 8.44387 6.05918 8.1924 6.46844 8.06728C6.9337 7.92503 7.49256 8.02357 8.61027 8.22065Z" fill="#FC8E5F"/>
<path d="M18.97 11.4C20.1826 9.29971 20.7889 8.24959 21.5804 7.89717C22.2708 7.58978 23.0593 7.58978 23.7497 7.89717C24.5412 8.24959 25.1475 9.29971 26.3601 11.4L27.0529 12.6C28.2655 14.7002 28.8718 15.7503 28.7812 16.612C28.7022 17.3637 28.308 18.0464 27.6966 18.4907C26.9956 19 25.783 19 23.3579 19H21.9722C19.5471 19 18.3345 19 17.6335 18.4907C17.0221 18.0464 16.6279 17.3637 16.5489 16.612C16.4583 15.7503 17.0646 14.7002 18.2772 12.6L18.97 11.4Z" fill="#00B267"/>
<path d="M8.12728 21.417C8.55124 21.0031 8.76322 20.7961 9.00558 20.7182C9.2189 20.6495 9.44772 20.6495 9.66104 20.7182C9.90341 20.7961 10.1154 21.0031 10.5393 21.417L11.0815 21.9464C11.2337 22.095 11.3098 22.1692 11.3963 22.2264C11.4731 22.2772 11.5559 22.3179 11.6426 22.3476C11.7404 22.381 11.8447 22.3955 12.0533 22.4243L12.7966 22.5272C13.3778 22.6076 13.6685 22.6478 13.8793 22.7927C14.0648 22.9202 14.2075 23.1029 14.2879 23.316C14.3794 23.5581 14.3531 23.8564 14.3005 24.453L14.2333 25.216C14.2144 25.4301 14.205 25.5371 14.2152 25.6419C14.2242 25.7349 14.2446 25.8263 14.276 25.9141C14.3113 26.013 14.3653 26.1053 14.4733 26.2898L14.858 26.9474C15.1588 27.4617 15.3093 27.7188 15.3298 27.9774C15.3478 28.2051 15.2969 28.4329 15.1839 28.63C15.0555 28.854 14.8108 29.019 14.3213 29.349L13.6952 29.771C13.5196 29.8894 13.4317 29.9486 13.3579 30.0221C13.2923 30.0872 13.235 30.1606 13.1874 30.2404C13.1337 30.3303 13.0967 30.4309 13.0228 30.6321L12.7592 31.3493C12.5531 31.9101 12.45 32.1905 12.2648 32.3682C12.1018 32.5245 11.8956 32.6259 11.6742 32.6586C11.4228 32.6957 11.1438 32.6032 10.586 32.4181L9.87258 32.1814C9.6724 32.115 9.5723 32.0818 9.47001 32.0686C9.37924 32.0569 9.28739 32.0569 9.19661 32.0686C9.09432 32.0818 8.99423 32.115 8.79404 32.1814L8.08062 32.4181C7.52278 32.6032 7.24387 32.6957 6.99238 32.6586C6.77102 32.6259 6.56486 32.5245 6.40183 32.3682C6.21659 32.1905 6.11353 31.9101 5.90743 31.3493L5.64384 30.6321C5.56988 30.4309 5.53289 30.3303 5.47922 30.2404C5.43159 30.1606 5.37432 30.0872 5.30876 30.0221C5.23488 29.9486 5.14705 29.8894 4.97138 29.771L4.34535 29.349C3.85584 29.019 3.61109 28.854 3.48272 28.63C3.36974 28.4329 3.31882 28.2051 3.33687 27.9774C3.35737 27.7188 3.50779 27.4617 3.80861 26.9474L4.19334 26.2898C4.3013 26.1053 4.35528 26.013 4.39064 25.9141C4.42202 25.8263 4.44246 25.7349 4.45148 25.6419C4.46164 25.5371 4.45221 25.4301 4.43334 25.216L4.36611 24.453C4.31355 23.8564 4.28726 23.5581 4.37869 23.316C4.45915 23.1029 4.60182 22.9202 4.78736 22.7927C4.99816 22.6478 5.28878 22.6076 5.87001 22.5272L6.61335 22.4243C6.82193 22.3955 6.92623 22.381 7.02399 22.3476C7.11075 22.3179 7.19351 22.2772 7.27032 22.2264C7.35687 22.1692 7.43294 22.095 7.58508 21.9464L8.12728 21.417Z" fill="#FE9FBB"/>
</g>
<path d="M126.827 28.32C125.363 28.32 124.199 28.2 123.335 27.96C122.471 27.696 121.847 27.204 121.463 26.484C121.103 25.74 120.923 24.672 120.923 23.28V14.64H117.971V10.464H120.923V6H126.395V10.464H130.283V14.64H126.395V21.84C126.395 22.68 126.551 23.232 126.863 23.496C127.199 23.736 127.811 23.856 128.699 23.856H130.283V28.32H126.827Z" fill="currentColor"/>
<path d="M108.808 28.752C106.84 28.752 105.172 28.356 103.804 27.564C102.46 26.772 101.428 25.668 100.708 24.252C100.012 22.812 99.6641 21.156 99.6641 19.284C99.6641 17.412 100.048 15.78 100.816 14.388C101.584 12.972 102.652 11.88 104.02 11.112C105.412 10.344 107.008 9.95996 108.808 9.95996C109.84 9.95996 110.86 10.104 111.868 10.392C112.9 10.68 113.848 11.172 114.712 11.868C115.6 12.54 116.32 13.464 116.872 14.64L112.3 16.296C112.012 15.528 111.58 14.988 111.004 14.676C110.452 14.364 109.828 14.208 109.132 14.208C108.484 14.208 107.86 14.376 107.26 14.712C106.66 15.024 106.168 15.552 105.784 16.296C105.424 17.04 105.244 18.048 105.244 19.32C105.244 20.616 105.436 21.648 105.82 22.416C106.204 23.16 106.684 23.7 107.26 24.036C107.86 24.348 108.484 24.504 109.132 24.504C109.9 24.504 110.548 24.36 111.076 24.072C111.604 23.76 112.024 23.34 112.336 22.812L116.8 24.432C116.2 25.512 115.456 26.376 114.568 27.024C113.68 27.648 112.732 28.092 111.724 28.356C110.74 28.62 109.768 28.752 108.808 28.752Z" fill="currentColor"/>
<path d="M89.0654 28.752C87.1454 28.752 85.4414 28.38 83.9534 27.636C82.4894 26.868 81.3374 25.776 80.4974 24.36C79.6814 22.944 79.2734 21.252 79.2734 19.284C79.2734 17.388 79.7054 15.744 80.5694 14.352C81.4574 12.96 82.6214 11.88 84.0614 11.112C85.5254 10.344 87.1214 9.95996 88.8494 9.95996C90.8174 9.95996 92.4974 10.428 93.8894 11.364C95.3054 12.276 96.3734 13.548 97.0934 15.18C97.8134 16.788 98.1134 18.648 97.9934 20.76H84.7814C84.8774 22.008 85.3334 22.944 86.1494 23.568C86.9894 24.192 87.9134 24.504 88.9214 24.504C89.7614 24.504 90.4814 24.384 91.0814 24.144C91.7054 23.88 92.1854 23.556 92.5214 23.172L96.8774 24.756C95.9414 26.124 94.7654 27.132 93.3494 27.78C91.9574 28.428 90.5294 28.752 89.0654 28.752ZM84.7814 17.52H92.9174C92.8934 16.368 92.4974 15.504 91.7294 14.928C90.9614 14.328 90.0494 14.028 88.9934 14.028C87.9614 14.028 87.0374 14.304 86.2214 14.856C85.4294 15.408 84.9494 16.296 84.7814 17.52Z" fill="currentColor"/>
<path d="M69.705 36.1162H66.573V31.7962H68.697C69.633 31.7962 70.257 31.7122 70.569 31.5442C70.905 31.3762 71.073 30.9922 71.073 30.3922V10.4642H76.545V31.1842C76.545 32.5282 76.245 33.5602 75.645 34.2802C75.045 35.0002 74.229 35.4802 73.197 35.7202C72.189 35.9842 71.025 36.1162 69.705 36.1162Z" fill="currentColor"/>
<path d="M50.2915 28.32V10.464H55.0795L55.7635 12.84C56.1715 12.168 56.8435 11.52 57.7795 10.896C58.7395 10.272 59.9035 9.95996 61.2715 9.95996C63.5755 9.95996 65.1475 10.608 65.9875 11.904C66.8515 13.176 67.2835 15.024 67.2835 17.448V28.32H61.8115V18.816C61.8115 17.976 61.7635 17.208 61.6675 16.512C61.5715 15.816 61.3315 15.264 60.9475 14.856C60.5875 14.424 59.9635 14.208 59.0755 14.208C57.9235 14.208 57.0835 14.628 56.5555 15.468C56.0275 16.284 55.7635 17.508 55.7635 19.14V28.32H50.2915Z" fill="currentColor"/>
<path d="M41.384 28.32V14.64H38V10.464H46.892V28.32H41.384Z" fill="currentColor"/>
<defs>
<clipPath id="clip0_2482_83112">
<rect width="32" height="32" fill="white" transform="translate(0 4)"/>
</clipPath>
</defs>
</svg>
