<svg width="16" height="16" viewBox="0 0 16 16" fill="none" xmlns="http://www.w3.org/2000/svg">
<g clip-path="url(#clip0_114_29890)">
<path d="M8.60738 12.0796H5.74854L5.74987 9.22217H8.60879L8.60738 12.0796Z" fill="black"/>
<path d="M11.4691 6.36473H8.61023L8.61157 3.50732H11.4705L11.4691 6.36473Z" fill="black"/>
<path d="M2.89107 9.22215H0.0322266L0.0335654 6.36475H2.89248L2.89107 9.22215Z" fill="black"/>
<path d="M2.89241 6.36473H0.0335693L0.0349082 3.50732H2.89382L2.89241 6.36473Z" fill="black"/>
<path d="M2.89412 3.50731H0.0352783L0.0366172 0.649902H2.89553L2.89412 3.50731Z" fill="black"/>
<path d="M14.3293 3.50731H11.4705L11.4718 0.649902H14.3307L14.3293 3.50731Z" fill="black"/>
<path d="M2.88972 12.0796H0.0308838L0.0322226 9.22217H2.89114L2.88972 12.0796Z" fill="black"/>
<path d="M2.88838 14.937H0.029541L0.0308799 12.0796H2.8898L2.88838 14.937Z" fill="black"/>
<path d="M4.21495 15.3694H1.27222L1.27359 12.4281H4.21648L4.21495 15.3694Z" fill="#FF0107"/>
<path d="M14.325 12.0796H11.4662L11.4675 9.22217H14.3264L14.325 12.0796Z" fill="black"/>
<path d="M14.3236 14.937H11.4647L11.4661 12.0796H14.325L14.3236 14.937Z" fill="black"/>
<path d="M6.93884 9.22191H4.08008L4.08142 6.3645H6.94033L6.93884 9.22191Z" fill="#FF7000"/>
<path d="M9.79634 12.0793H6.9375L6.93884 9.22192H9.79776L9.79634 12.0793Z" fill="#FF4900"/>
<path d="M9.79768 9.22191H6.93884L6.94018 6.3645H9.7991L9.79768 9.22191Z" fill="#FF7000"/>
<path d="M12.6566 9.22191H9.79773L9.79907 6.3645H12.658L12.6566 9.22191Z" fill="#FF7000"/>
<path d="M6.94019 6.36448H4.08142L4.08276 3.50708H6.94168L6.94019 6.36448Z" fill="#FFA300"/>
<path d="M12.658 6.36448H9.79919L9.80053 3.50708H12.6595L12.658 6.36448Z" fill="#FFA300"/>
<path d="M4.07996 9.22191H1.22119L1.22253 6.3645H4.08145L4.07996 9.22191Z" fill="#FF7000"/>
<path d="M4.08142 6.36448H1.22266L1.224 3.50708H4.08291L4.08142 6.36448Z" fill="#FFA300"/>
<path d="M4.08289 3.50706H1.22412L1.22546 0.649658H4.08438L4.08289 3.50706Z" fill="#FFCE00"/>
<path d="M15.5183 3.50706H12.6594L12.6608 0.649658H15.5197L15.5183 3.50706Z" fill="#FFCE00"/>
<path d="M4.07861 12.0793H1.21985L1.22119 9.22192H4.0801L4.07861 12.0793Z" fill="#FF4900"/>
<path d="M15.5155 9.22191H12.6566L12.658 6.3645H15.5169L15.5155 9.22191Z" fill="#FF7000"/>
<path d="M15.5168 6.36448H12.658L12.6593 3.50708H15.5182L15.5168 6.36448Z" fill="#FFA300"/>
<path d="M15.514 12.0793H12.6552L12.6565 9.22192H15.5154L15.514 12.0793Z" fill="#FF4900"/>
<path d="M15.5126 14.9367H12.6538L12.6551 12.0793H15.5141L15.5126 14.9367Z" fill="#FF0107"/>
</g>
<defs>
<clipPath id="clip0_114_29890">
<rect width="16" height="16" fill="white"/>
</clipPath>
</defs>
</svg>
