<svg width="16" height="16" viewBox="0 0 16 16" fill="none" xmlns="http://www.w3.org/2000/svg">
<g clip-path="url(#clip0_114_29891)">
<path d="M14.707 6.57798C15.0689 5.49187 14.9443 4.30209 14.3656 3.31418C13.4953 1.79891 11.7458 1.01935 10.0371 1.3862C9.27701 0.529879 8.18492 0.0429005 7.04 0.0498787C5.29346 0.0458911 3.7438 1.17038 3.20648 2.83218C2.08449 3.06197 1.11601 3.76427 0.549284 4.75966C-0.327477 6.27094 -0.127601 8.17598 1.04374 9.47193C0.681869 10.558 0.80648 11.7478 1.38517 12.7357C2.25545 14.251 4.00498 15.0306 5.71364 14.6637C6.47327 15.52 7.56586 16.007 8.71078 15.9995C10.4583 16.004 12.0085 14.8785 12.5458 13.2152C13.6678 12.9855 14.6363 12.2831 15.203 11.2878C16.0788 9.77648 15.8784 7.87293 14.7075 6.57698L14.707 6.57798ZM8.71178 14.9573C8.01246 14.9583 7.33508 14.7136 6.79826 14.2655C6.82268 14.2525 6.86505 14.2291 6.89246 14.2121L10.0685 12.3779C10.231 12.2856 10.3307 12.1127 10.3297 11.9258V7.44826L11.672 8.22334C11.6865 8.23031 11.696 8.24427 11.6979 8.26022V11.9681C11.696 13.617 10.3606 14.9538 8.71178 14.9573ZM2.28984 12.2144C1.93944 11.6093 1.81333 10.9 1.93346 10.2116C1.95688 10.2256 1.99826 10.251 2.02766 10.2679L5.20374 12.1022C5.36474 12.1964 5.56411 12.1964 5.72561 12.1022L9.60299 9.86321V11.4134C9.60399 11.4293 9.59651 11.4448 9.58405 11.4547L6.37358 13.3084C4.94355 14.1319 3.11726 13.6424 2.29034 12.2144H2.28984ZM1.45396 5.28153C1.80287 4.67542 2.35364 4.21187 3.00959 3.97112C3.00959 3.99854 3.0081 4.04689 3.0081 4.08078V7.74982C3.0071 7.93623 3.10679 8.10919 3.26878 8.2014L7.14617 10.4399L5.80386 11.215C5.7904 11.224 5.77346 11.2255 5.7585 11.219L2.54754 9.36377C1.1205 8.53735 0.631028 6.71156 1.45346 5.28203L1.45396 5.28153ZM12.4825 7.84801L8.60511 5.60901L9.94741 4.83443C9.96087 4.82545 9.97782 4.82396 9.99277 4.83044L13.2037 6.68415C14.6333 7.51007 15.1232 9.33885 14.2973 10.7684C13.9479 11.3735 13.3976 11.837 12.7422 12.0783V8.2996C12.7437 8.11318 12.6445 7.94072 12.483 7.84801H12.4825ZM13.8183 5.83729C13.7949 5.82284 13.7535 5.79792 13.7241 5.78097L10.548 3.9467C10.387 3.8525 10.1877 3.8525 10.0262 3.9467L6.14879 6.1857V4.63555C6.14779 4.6196 6.15526 4.60415 6.16773 4.59418L9.37819 2.74197C10.8082 1.91704 12.6365 2.40801 13.4609 3.83854C13.8093 4.44265 13.9355 5.14994 13.8173 5.83729H13.8183ZM5.41907 8.60016L4.07626 7.82508C4.06181 7.8181 4.05234 7.80415 4.05034 7.7882V4.08028C4.05134 2.42944 5.39065 1.09162 7.0415 1.09262C7.73981 1.09262 8.4157 1.33785 8.95252 1.78446C8.9281 1.79742 8.88623 1.82084 8.85832 1.83779L5.68224 3.67206C5.51975 3.76427 5.42006 3.93673 5.42106 4.12365L5.41907 8.59916V8.60016ZM6.14829 7.02807L7.87539 6.03069L9.60249 7.02757V9.02184L7.87539 10.0187L6.14829 9.02184V7.02807Z" fill="black"/>
</g>
<defs>
<clipPath id="clip0_114_29891">
<rect width="15.7508" height="16" fill="white"/>
</clipPath>
</defs>
</svg>
