<svg width="16" height="16" viewBox="0 0 16 16" fill="none" xmlns="http://www.w3.org/2000/svg">
<g clip-path="url(#clip0_114_29917)">
<path d="M12.177 10.7146L13.2693 11.0115C13.5632 11.0914 13.7102 11.1314 13.7721 11.2132C13.8261 11.2845 13.8447 11.376 13.8231 11.4632C13.7982 11.5634 13.679 11.6597 13.4406 11.8522L10.8676 13.9293C10.4925 14.2322 10.305 14.3836 10.181 14.3758C10.074 14.3691 9.97901 14.3087 9.93 14.2161C9.87329 14.1089 9.94174 13.8818 10.0786 13.4274L10.4311 12.2578C10.4804 12.0939 10.5051 12.0119 10.4915 11.9405C10.4796 11.8777 10.4475 11.8205 10.3999 11.7772C10.3458 11.728 10.2624 11.7053 10.0956 11.66L9.00332 11.363C8.70939 11.2831 8.56242 11.2432 8.50047 11.1613C8.44651 11.0901 8.42788 10.9986 8.44953 10.9113C8.47439 10.8111 8.5936 10.7149 8.83203 10.5224L11.405 8.44521C11.7801 8.14241 11.9676 7.99101 12.0915 7.99877C12.1986 8.00548 12.2936 8.06589 12.3426 8.15849C12.3993 8.26564 12.3308 8.49281 12.1939 8.94714L11.8415 10.1168C11.7921 10.2807 11.7674 10.3626 11.781 10.4341C11.793 10.4969 11.8251 10.5541 11.8727 10.5973C11.9268 10.6466 12.0102 10.6692 12.177 10.7146Z" fill="#9C6FFC"/>
<path d="M4.30513 2.11033L6.10128 2.42704C6.66014 2.52558 6.93956 2.57485 7.13384 2.72125C7.30473 2.85002 7.43047 3.02959 7.49303 3.23422C7.56415 3.46685 7.51488 3.74628 7.41634 4.30513L7.09963 6.10128C7.00109 6.66014 6.95182 6.93956 6.80542 7.13384C6.67665 7.30473 6.49708 7.43047 6.29245 7.49303C6.05982 7.56415 5.78039 7.51488 5.22153 7.41634L3.42538 7.09963C2.86653 7.00109 2.5871 6.95182 2.39283 6.80542C2.22194 6.67665 2.0962 6.49708 2.03364 6.29245C1.96251 6.05982 2.01179 5.78039 2.11033 5.22153L2.42704 3.42538C2.52558 2.86653 2.57485 2.5871 2.72125 2.39283C2.85002 2.22194 3.02959 2.0962 3.23422 2.03364C3.46685 1.96251 3.74628 2.01179 4.30513 2.11033Z" fill="#FBEE40"/>
<path d="M4.30513 2.11033L6.10128 2.42704C6.66014 2.52558 6.93956 2.57485 7.13384 2.72125C7.30473 2.85002 7.43047 3.02959 7.49303 3.23422C7.56415 3.46685 7.51488 3.74628 7.41634 4.30513L7.09963 6.10128C7.00109 6.66014 6.95182 6.93956 6.80542 7.13384C6.67665 7.30473 6.49708 7.43047 6.29245 7.49303C6.05982 7.56415 5.78039 7.51488 5.22153 7.41634L3.42538 7.09963C2.86653 7.00109 2.5871 6.95182 2.39283 6.80542C2.22194 6.67665 2.0962 6.49708 2.03364 6.29245C1.96251 6.05982 2.01179 5.78039 2.11033 5.22153L2.42704 3.42538C2.52558 2.86653 2.57485 2.5871 2.72125 2.39283C2.85002 2.22194 3.02959 2.0962 3.23422 2.03364C3.46685 1.96251 3.74628 2.01179 4.30513 2.11033Z" fill="#FC8E5F"/>
<path d="M9.48501 3.69992C10.0913 2.6498 10.3944 2.12473 10.7902 1.94852C11.1354 1.79483 11.5296 1.79483 11.8748 1.94852C12.2706 2.12473 12.5738 2.6498 13.18 3.69992L13.5265 4.29992C14.1327 5.35004 14.4359 5.8751 14.3906 6.30596C14.3511 6.68177 14.154 7.02316 13.8483 7.24528C13.4978 7.49992 12.8915 7.49992 11.6789 7.49992H10.9861C9.77354 7.49992 9.16725 7.49992 8.81676 7.24528C8.51105 7.02316 8.31395 6.68177 8.27445 6.30596C8.22916 5.8751 8.53231 5.35004 9.13859 4.29992L9.48501 3.69992Z" fill="#00B267"/>
<path d="M4.06361 8.70854C4.27559 8.50158 4.38158 8.39809 4.50276 8.35911C4.60942 8.3248 4.72383 8.3248 4.83049 8.35911C4.95167 8.39809 5.05766 8.50158 5.26964 8.70854L5.54074 8.97324C5.61681 9.04751 5.65485 9.08465 5.69812 9.11325C5.73653 9.13864 5.77791 9.15899 5.82129 9.17382C5.87017 9.19054 5.92232 9.19776 6.02661 9.21219L6.39828 9.26361C6.68889 9.30381 6.8342 9.32392 6.9396 9.39637C7.03237 9.46013 7.10371 9.55148 7.14394 9.65804C7.18965 9.7791 7.17651 9.92825 7.15022 10.2265L7.11661 10.608C7.10718 10.7151 7.10246 10.7686 7.10754 10.821C7.11205 10.8675 7.12227 10.9132 7.13796 10.9571C7.15564 11.0065 7.18263 11.0527 7.23661 11.1449L7.42898 11.4738C7.57939 11.7309 7.6546 11.8594 7.66485 11.9887C7.67387 12.1026 7.64841 12.2165 7.59192 12.315C7.52774 12.427 7.40536 12.5095 7.16061 12.6745L6.84759 12.8855C6.75976 12.9447 6.71584 12.9743 6.6789 13.0111C6.64612 13.0437 6.61749 13.0803 6.59367 13.1202C6.56684 13.1652 6.54834 13.2155 6.51136 13.3161L6.37957 13.6747C6.27651 13.9551 6.22499 14.0953 6.13237 14.1841C6.05085 14.2623 5.94777 14.313 5.83709 14.3293C5.71135 14.3479 5.57189 14.3016 5.29297 14.2091L4.93626 14.0907C4.83617 14.0575 4.78612 14.0409 4.73498 14.0343C4.68959 14.0285 4.64366 14.0285 4.59828 14.0343C4.54713 14.0409 4.49708 14.0575 4.39699 14.0907L4.04028 14.2091C3.76136 14.3016 3.6219 14.3479 3.49616 14.3293C3.38548 14.313 3.2824 14.2623 3.20088 14.1841C3.10826 14.0953 3.05674 13.9551 2.95368 13.6747L2.82189 13.3161C2.78491 13.2155 2.76642 13.1652 2.73958 13.1202C2.71576 13.0803 2.68713 13.0437 2.65435 13.0111C2.61741 12.9743 2.57349 12.9447 2.48566 12.8855L2.17264 12.6745C1.92789 12.5095 1.80552 12.427 1.74133 12.315C1.68484 12.2165 1.65938 12.1026 1.6684 11.9887C1.67866 11.8594 1.75386 11.7309 1.90428 11.4738L2.09664 11.1449C2.15062 11.0527 2.17761 11.0065 2.19529 10.9571C2.21098 10.9132 2.2212 10.8675 2.22571 10.821C2.23079 10.7686 2.22607 10.7151 2.21664 10.608L2.18303 10.2265C2.15674 9.92825 2.1436 9.7791 2.18931 9.65804C2.22954 9.55148 2.30088 9.46013 2.39365 9.39637C2.49905 9.32392 2.64436 9.30381 2.93497 9.26361L3.30664 9.21219C3.41094 9.19776 3.46308 9.19054 3.51196 9.17382C3.55534 9.15899 3.59672 9.13864 3.63513 9.11325C3.6784 9.08465 3.71644 9.04751 3.79251 8.97324L4.06361 8.70854Z" fill="#FE9FBB"/>
</g>
<defs>
<clipPath id="clip0_114_29917">
<rect width="16" height="16" fill="white"/>
</clipPath>
</defs>
</svg>
